<svg xmlns="http://www.w3.org/2000/svg" viewBox="0 0 9.09 16.74"><defs><style>.cls-1{fill:#fff;}</style></defs><g id="圖層_2" data-name="圖層 2"><g id="圖層_1-2" data-name="圖層 1"><g id="圖層_2-2" data-name="圖層 2"><g id="圖層_1-2-2" data-name="圖層 1-2"><path class="cls-1" d="M8.79,8h0a1,1,0,0,1,0,1.41L1.71,16.45a1,1,0,0,1-1.42,0h0A1,1,0,0,1,.29,15L7.38,8A1,1,0,0,1,8.79,8Z"/><path class="cls-1" d="M8.8,8.79h0a1,1,0,0,1-1.42,0L.3,1.71A1,1,0,0,1,.3.29h0a1,1,0,0,1,1.41,0L8.8,7.38A1,1,0,0,1,8.8,8.79Z"/></g></g></g></g></svg>